<?xml version="1.0" standalone="no"?><svg xmlns="http://www.w3.org/2000/svg" viewBox="0 0 1440 320"><path fill="#ffd700" fill-opacity="1" d="M0,64L15,85.3C30,107,60,149,90,181.3C120,213,150,235,180,224C210,213,240,171,270,165.3C300,160,330,192,360,208C390,224,420,224,450,234.7C480,245,510,267,540,240C570,213,600,139,630,96C660,53,690,43,720,48C750,53,780,75,810,101.3C840,128,870,160,900,181.3C930,203,960,213,990,197.3C1020,181,1050,139,1080,144C1110,149,1140,203,1170,234.7C1200,267,1230,277,1260,272C1290,267,1320,245,1350,229.3C1380,213,1410,203,1425,197.3L1440,192L1440,0L1425,0C1410,0,1380,0,1350,0C1320,0,1290,0,1260,0C1230,0,1200,0,1170,0C1140,0,1110,0,1080,0C1050,0,1020,0,990,0C960,0,930,0,900,0C870,0,840,0,810,0C780,0,750,0,720,0C690,0,660,0,630,0C600,0,570,0,540,0C510,0,480,0,450,0C420,0,390,0,360,0C330,0,300,0,270,0C240,0,210,0,180,0C150,0,120,0,90,0C60,0,30,0,15,0L0,0Z" data-darkreader-inline-fill="" style="--darkreader-inline-fill: var(--darkreader-background-ffd700, #998100);"></path></svg>